<svg aria-roledescription="er" viewBox="0 0 492.51373291015625 293" style="max-width: 492.514px; background-color: white;" xmlns:xlink="http://www.w3.org/1999/xlink" xmlns="http://www.w3.org/2000/svg" width="100%" id="mermaid-0"><style>#mermaid-0{font-family:"trebuchet ms",verdana,arial,sans-serif;font-size:16px;fill:#000000;}#mermaid-0 .error-icon{fill:#552222;}#mermaid-0 .error-text{fill:#552222;stroke:#552222;}#mermaid-0 .edge-thickness-normal{stroke-width:2px;}#mermaid-0 .edge-thickness-thick{stroke-width:3.5px;}#mermaid-0 .edge-pattern-solid{stroke-dasharray:0;}#mermaid-0 .edge-pattern-dashed{stroke-dasharray:3;}#mermaid-0 .edge-pattern-dotted{stroke-dasharray:2;}#mermaid-0 .marker{fill:#000000;stroke:#000000;}#mermaid-0 .marker.cross{stroke:#000000;}#mermaid-0 svg{font-family:"trebuchet ms",verdana,arial,sans-serif;font-size:16px;}#mermaid-0 .entityBox{fill:#cde498;stroke:#13540c;}#mermaid-0 .attributeBoxOdd{fill:#ffffff;stroke:#13540c;}#mermaid-0 .attributeBoxEven{fill:#f2f2f2;stroke:#13540c;}#mermaid-0 .relationshipLabelBox{fill:hsl(78.1578947368, 58.4615384615%, 84.5098039216%);opacity:0.7;background-color:hsl(78.1578947368, 58.4615384615%, 84.5098039216%);}#mermaid-0 .relationshipLabelBox rect{opacity:0.5;}#mermaid-0 .relationshipLine{stroke:#000000;}#mermaid-0 .entityTitleText{text-anchor:middle;font-size:18px;fill:#000000;}#mermaid-0 :root{--mermaid-font-family:"trebuchet ms",verdana,arial,sans-serif;}</style><g/><defs><marker orient="auto" markerHeight="18" markerWidth="18" refY="9" refX="0" id="ONLY_ONE_START"><path d="M9,0 L9,18 M15,0 L15,18" fill="none" stroke="gray"/></marker></defs><defs><marker orient="auto" markerHeight="18" markerWidth="18" refY="9" refX="18" id="ONLY_ONE_END"><path d="M3,0 L3,18 M9,0 L9,18" fill="none" stroke="gray"/></marker></defs><defs><marker orient="auto" markerHeight="18" markerWidth="30" refY="9" refX="0" id="ZERO_OR_ONE_START"><circle r="6" cy="9" cx="21" fill="white" stroke="gray"/><path d="M9,0 L9,18" fill="none" stroke="gray"/></marker></defs><defs><marker orient="auto" markerHeight="18" markerWidth="30" refY="9" refX="30" id="ZERO_OR_ONE_END"><circle r="6" cy="9" cx="9" fill="white" stroke="gray"/><path d="M21,0 L21,18" fill="none" stroke="gray"/></marker></defs><defs><marker orient="auto" markerHeight="36" markerWidth="45" refY="18" refX="18" id="ONE_OR_MORE_START"><path d="M0,18 Q 18,0 36,18 Q 18,36 0,18 M42,9 L42,27" fill="none" stroke="gray"/></marker></defs><defs><marker orient="auto" markerHeight="36" markerWidth="45" refY="18" refX="27" id="ONE_OR_MORE_END"><path d="M3,9 L3,27 M9,18 Q27,0 45,18 Q27,36 9,18" fill="none" stroke="gray"/></marker></defs><defs><marker orient="auto" markerHeight="36" markerWidth="57" refY="18" refX="18" id="ZERO_OR_MORE_START"><circle r="6" cy="18" cx="48" fill="white" stroke="gray"/><path d="M0,18 Q18,0 36,18 Q18,36 0,18" fill="none" stroke="gray"/></marker></defs><defs><marker orient="auto" markerHeight="36" markerWidth="57" refY="18" refX="39" id="ZERO_OR_MORE_END"><circle r="6" cy="18" cx="9" fill="white" stroke="gray"/><path d="M21,18 Q39,0 57,18 Q39,36 21,18" fill="none" stroke="gray"/></marker></defs><path style="stroke: gray; fill: none;" marker-start="url(#ZERO_OR_MORE_START)" marker-end="url(#ONLY_ONE_END)" d="M93.0390625,86L93.0390625,94.33333333333333C93.0390625,102.66666666666667,93.0390625,119.33333333333333,97.49539048573975,136C101.95171847147951,152.66666666666666,110.864374442959,169.33333333333334,115.32070242869877,177.66666666666666L119.7770304144385,186" class="er relationshipLine"/><path style="stroke: gray; fill: none;" marker-start="url(#ZERO_OR_MORE_START)" marker-end="url(#ONLY_ONE_END)" d="M382.0329003391496,75.5L388.10719752790465,85.58333333333333C394.18149471665964,95.66666666666667,406.33008909416964,115.83333333333333,412.4043862829247,136C418.4786834716797,156.16666666666666,418.4786834716797,176.33333333333334,418.4786834716797,186.41666666666666L418.4786834716797,196.5" class="er relationshipLine"/><path style="stroke: gray; fill: none;" marker-start="url(#ZERO_OR_MORE_START)" marker-end="url(#ONLY_ONE_END)" d="M338.36868644622433,75.5L324.87494703852025,85.58333333333333C311.3812076308162,95.66666666666667,284.3937288154081,115.83333333333333,260.70683544157214,134.25C237.0199420677362,152.66666666666666,216.63363413547236,169.33333333333334,206.44048016934047,177.66666666666666L196.24732620320856,186" class="er relationshipLine"/><g transform="translate(74.92926025390625,186 )" id="entity-disciplines-7f755200-c074-4b44-8d99-d4c59176d8d1"><rect height="87" width="136.2196044921875" y="0" x="0" class="er entityBox"/><text style="dominant-baseline: middle; text-anchor: middle; font-size: 12px;" transform="translate(68.10980224609375,12)" y="0" x="0" id="text-entity-disciplines-7f755200-c074-4b44-8d99-d4c59176d8d1" class="er entityLabel">disciplines</text><rect height="21" width="54.113128662109375" y="24" x="0" class="er attributeBoxOdd"/><text style="dominant-baseline: middle; font-size: 10.2px;" transform="translate(5,34.5)" y="0" x="0" id="text-entity-disciplines-7f755200-c074-4b44-8d99-d4c59176d8d1-attr-1-type" class="er entityLabel">String</text><rect height="21" width="58.311492919921875" y="24" x="54.113128662109375" class="er attributeBoxOdd"/><text style="dominant-baseline: middle; font-size: 10.2px;" transform="translate(59.113128662109375,34.5)" y="0" x="0" id="text-entity-disciplines-7f755200-c074-4b44-8d99-d4c59176d8d1-attr-1-name" class="er entityLabel">id</text><rect height="21" width="23.79498291015625" y="24" x="112.42462158203125" class="er attributeBoxOdd"/><text style="dominant-baseline: middle; font-size: 10.2px;" transform="translate(117.42462158203125,34.5)" y="0" x="0" id="text-entity-disciplines-7f755200-c074-4b44-8d99-d4c59176d8d1-attr-1-key" class="er entityLabel">PK</text><rect height="21" width="54.113128662109375" y="45" x="0" class="er attributeBoxEven"/><text style="dominant-baseline: middle; font-size: 10.2px;" transform="translate(5,55.5)" y="0" x="0" id="text-entity-disciplines-7f755200-c074-4b44-8d99-d4c59176d8d1-attr-2-type" class="er entityLabel">String</text><rect height="21" width="58.311492919921875" y="45" x="54.113128662109375" class="er attributeBoxEven"/><text style="dominant-baseline: middle; font-size: 10.2px;" transform="translate(59.113128662109375,55.5)" y="0" x="0" id="text-entity-disciplines-7f755200-c074-4b44-8d99-d4c59176d8d1-attr-2-name" class="er entityLabel">title</text><rect height="21" width="23.79498291015625" y="45" x="112.42462158203125" class="er attributeBoxEven"/><text style="dominant-baseline: middle; font-size: 10.2px;" transform="translate(117.42462158203125,55.5)" y="0" x="0" id="text-entity-disciplines-7f755200-c074-4b44-8d99-d4c59176d8d1-attr-2-key" class="er entityLabel"/><rect height="21" width="54.113128662109375" y="66" x="0" class="er attributeBoxOdd"/><text style="dominant-baseline: middle; font-size: 10.2px;" transform="translate(5,76.5)" y="0" x="0" id="text-entity-disciplines-7f755200-c074-4b44-8d99-d4c59176d8d1-attr-3-type" class="er entityLabel">DateTime</text><rect height="21" width="58.311492919921875" y="66" x="54.113128662109375" class="er attributeBoxOdd"/><text style="dominant-baseline: middle; font-size: 10.2px;" transform="translate(59.113128662109375,76.5)" y="0" x="0" id="text-entity-disciplines-7f755200-c074-4b44-8d99-d4c59176d8d1-attr-3-name" class="er entityLabel">created_at</text><rect height="21" width="23.79498291015625" y="66" x="112.42462158203125" class="er attributeBoxOdd"/><text style="dominant-baseline: middle; font-size: 10.2px;" transform="translate(117.42462158203125,76.5)" y="0" x="0" id="text-entity-disciplines-7f755200-c074-4b44-8d99-d4c59176d8d1-attr-3-key" class="er entityLabel"/></g><g transform="translate(20,20 )" id="entity-disciplineweekdays-3d43deaf-9661-4a68-9a8a-8440fc356de1"><rect height="66" width="146.078125" y="0" x="0" class="er entityBox"/><text style="dominant-baseline: middle; text-anchor: middle; font-size: 12px;" transform="translate(73.0390625,12)" y="0" x="0" id="text-entity-disciplineweekdays-3d43deaf-9661-4a68-9a8a-8440fc356de1" class="er entityLabel">discipline_week_days</text><rect height="21" width="46.132466634114586" y="24" x="0" class="er attributeBoxOdd"/><text style="dominant-baseline: middle; font-size: 10.2px;" transform="translate(5,34.5)" y="0" x="0" id="text-entity-disciplineweekdays-3d43deaf-9661-4a68-9a8a-8440fc356de1-attr-1-type" class="er entityLabel">String</text><rect height="21" width="66.9652608235677" y="24" x="46.132466634114586" class="er attributeBoxOdd"/><text style="dominant-baseline: middle; font-size: 10.2px;" transform="translate(51.132466634114586,34.5)" y="0" x="0" id="text-entity-disciplineweekdays-3d43deaf-9661-4a68-9a8a-8440fc356de1-attr-1-name" class="er entityLabel">id</text><rect height="21" width="32.98039754231771" y="24" x="113.09772745768228" class="er attributeBoxOdd"/><text style="dominant-baseline: middle; font-size: 10.2px;" transform="translate(118.09772745768228,34.5)" y="0" x="0" id="text-entity-disciplineweekdays-3d43deaf-9661-4a68-9a8a-8440fc356de1-attr-1-key" class="er entityLabel">PK</text><rect height="21" width="46.132466634114586" y="45" x="0" class="er attributeBoxEven"/><text style="dominant-baseline: middle; font-size: 10.2px;" transform="translate(5,55.5)" y="0" x="0" id="text-entity-disciplineweekdays-3d43deaf-9661-4a68-9a8a-8440fc356de1-attr-2-type" class="er entityLabel">Int</text><rect height="21" width="66.9652608235677" y="45" x="46.132466634114586" class="er attributeBoxEven"/><text style="dominant-baseline: middle; font-size: 10.2px;" transform="translate(51.132466634114586,55.5)" y="0" x="0" id="text-entity-disciplineweekdays-3d43deaf-9661-4a68-9a8a-8440fc356de1-attr-2-name" class="er entityLabel">week_day</text><rect height="21" width="32.98039754231771" y="45" x="113.09772745768228" class="er attributeBoxEven"/><text style="dominant-baseline: middle; font-size: 10.2px;" transform="translate(118.09772745768228,55.5)" y="0" x="0" id="text-entity-disciplineweekdays-3d43deaf-9661-4a68-9a8a-8440fc356de1-attr-2-key" class="er entityLabel"/></g><g transform="translate(364.44361877441406,196.5 )" id="entity-days-d708ed6e-ea83-4244-baec-e813b1aff3d9"><rect height="66" width="108.07012939453125" y="0" x="0" class="er entityBox"/><text style="dominant-baseline: middle; text-anchor: middle; font-size: 12px;" transform="translate(54.035064697265625,12)" y="0" x="0" id="text-entity-days-d708ed6e-ea83-4244-baec-e813b1aff3d9" class="er entityLabel">days</text><rect height="21" width="54.113128662109375" y="24" x="0" class="er attributeBoxOdd"/><text style="dominant-baseline: middle; font-size: 10.2px;" transform="translate(5,34.5)" y="0" x="0" id="text-entity-days-d708ed6e-ea83-4244-baec-e813b1aff3d9-attr-1-type" class="er entityLabel">String</text><rect height="21" width="30.162017822265625" y="24" x="54.113128662109375" class="er attributeBoxOdd"/><text style="dominant-baseline: middle; font-size: 10.2px;" transform="translate(59.113128662109375,34.5)" y="0" x="0" id="text-entity-days-d708ed6e-ea83-4244-baec-e813b1aff3d9-attr-1-name" class="er entityLabel">id</text><rect height="21" width="23.79498291015625" y="24" x="84.275146484375" class="er attributeBoxOdd"/><text style="dominant-baseline: middle; font-size: 10.2px;" transform="translate(89.275146484375,34.5)" y="0" x="0" id="text-entity-days-d708ed6e-ea83-4244-baec-e813b1aff3d9-attr-1-key" class="er entityLabel">PK</text><rect height="21" width="54.113128662109375" y="45" x="0" class="er attributeBoxEven"/><text style="dominant-baseline: middle; font-size: 10.2px;" transform="translate(5,55.5)" y="0" x="0" id="text-entity-days-d708ed6e-ea83-4244-baec-e813b1aff3d9-attr-2-type" class="er entityLabel">DateTime</text><rect height="21" width="30.162017822265625" y="45" x="54.113128662109375" class="er attributeBoxEven"/><text style="dominant-baseline: middle; font-size: 10.2px;" transform="translate(59.113128662109375,55.5)" y="0" x="0" id="text-entity-days-d708ed6e-ea83-4244-baec-e813b1aff3d9-attr-2-name" class="er entityLabel">date</text><rect height="21" width="23.79498291015625" y="45" x="84.275146484375" class="er attributeBoxEven"/><text style="dominant-baseline: middle; font-size: 10.2px;" transform="translate(89.275146484375,55.5)" y="0" x="0" id="text-entity-days-d708ed6e-ea83-4244-baec-e813b1aff3d9-attr-2-key" class="er entityLabel"/></g><g transform="translate(312.7833709716797,30.5 )" id="entity-daydisciplines-f5f39778-69bf-4a6a-8b68-53e16463bded"><rect height="45" width="111.390625" y="0" x="0" class="er entityBox"/><text style="dominant-baseline: middle; text-anchor: middle; font-size: 12px;" transform="translate(55.6953125,12)" y="0" x="0" id="text-entity-daydisciplines-f5f39778-69bf-4a6a-8b68-53e16463bded" class="er entityLabel">day_disciplines</text><rect height="21" width="47.74213663736979" y="24" x="0" class="er attributeBoxOdd"/><text style="dominant-baseline: middle; font-size: 10.2px;" transform="translate(5,34.5)" y="0" x="0" id="text-entity-daydisciplines-f5f39778-69bf-4a6a-8b68-53e16463bded-attr-1-type" class="er entityLabel">String</text><rect height="21" width="29.05842081705729" y="24" x="47.74213663736979" class="er attributeBoxOdd"/><text style="dominant-baseline: middle; font-size: 10.2px;" transform="translate(52.74213663736979,34.5)" y="0" x="0" id="text-entity-daydisciplines-f5f39778-69bf-4a6a-8b68-53e16463bded-attr-1-name" class="er entityLabel">id</text><rect height="21" width="34.590067545572914" y="24" x="76.80055745442708" class="er attributeBoxOdd"/><text style="dominant-baseline: middle; font-size: 10.2px;" transform="translate(81.80055745442708,34.5)" y="0" x="0" id="text-entity-daydisciplines-f5f39778-69bf-4a6a-8b68-53e16463bded-attr-1-key" class="er entityLabel">PK</text></g><rect height="14" width="49.685546875" y="131.1707000732422" x="73.25786590576172" class="er relationshipLabelBox"/><text style="text-anchor: middle; dominant-baseline: middle; font-size: 12px;" y="138.1707000732422" x="98.10063934326172" id="rel1" class="er relationshipLabel">discipline</text><rect height="14" width="19.359375" y="125.74607849121094" x="401.693115234375" class="er relationshipLabelBox"/><text style="text-anchor: middle; dominant-baseline: middle; font-size: 12px;" y="132.74607849121094" x="411.372802734375" id="rel2" class="er relationshipLabel">day</text><rect height="14" width="49.685546875" y="122.74330139160156" x="241.68096923828125" class="er relationshipLabelBox"/><text style="text-anchor: middle; dominant-baseline: middle; font-size: 12px;" y="129.74330139160156" x="266.52374267578125" id="rel3" class="er relationshipLabel">discipline</text></svg>