<svg width="173" height="64" viewBox="0 0 173 64" fill="none" xmlns="http://www.w3.org/2000/svg">
<path d="M1.76136 56V32.7273H17.6477V37.2955H7.38636V42.0682H16.6364V46.6477H7.38636V56H1.76136ZM25.1193 56.2955C24.0057 56.2955 23.017 56.1098 22.1534 55.7386C21.2973 55.3598 20.6193 54.7917 20.1193 54.0341C19.6269 53.2689 19.3807 52.3106 19.3807 51.1591C19.3807 50.1894 19.5511 49.3712 19.892 48.7045C20.233 48.0379 20.7027 47.4962 21.3011 47.0795C21.8996 46.6629 22.589 46.3485 23.3693 46.1364C24.1496 45.9167 24.983 45.7689 25.8693 45.6932C26.8617 45.6023 27.661 45.5076 28.267 45.4091C28.8731 45.303 29.3125 45.1553 29.5852 44.9659C29.8655 44.7689 30.0057 44.4924 30.0057 44.1364V44.0795C30.0057 43.4962 29.8049 43.0455 29.4034 42.7273C29.0019 42.4091 28.4602 42.25 27.7784 42.25C27.0436 42.25 26.4527 42.4091 26.0057 42.7273C25.5587 43.0455 25.2746 43.4848 25.1534 44.0455L20.0284 43.8636C20.1799 42.803 20.5701 41.8561 21.1989 41.0227C21.8352 40.1818 22.7064 39.5227 23.8125 39.0455C24.9261 38.5606 26.2633 38.3182 27.8239 38.3182C28.9375 38.3182 29.964 38.4508 30.9034 38.7159C31.8428 38.9735 32.661 39.3523 33.358 39.8523C34.0549 40.3447 34.5928 40.9508 34.9716 41.6705C35.358 42.3902 35.5511 43.2121 35.5511 44.1364V56H30.3239V53.5682H30.1875C29.8769 54.1591 29.4792 54.6591 28.9943 55.0682C28.517 55.4773 27.9527 55.7841 27.3011 55.9886C26.6572 56.1932 25.9299 56.2955 25.1193 56.2955ZM26.8352 52.6591C27.4337 52.6591 27.9716 52.5379 28.4489 52.2955C28.9337 52.053 29.3201 51.7197 29.608 51.2955C29.8958 50.8636 30.0398 50.3636 30.0398 49.7955V48.1364C29.8807 48.2197 29.6875 48.2955 29.4602 48.3636C29.2405 48.4318 28.9981 48.4962 28.733 48.5568C28.4678 48.6174 28.1951 48.6705 27.9148 48.7159C27.6345 48.7614 27.3655 48.803 27.108 48.8409C26.5852 48.9242 26.1383 49.053 25.767 49.2273C25.4034 49.4015 25.1231 49.6288 24.9261 49.9091C24.7367 50.1818 24.642 50.5076 24.642 50.8864C24.642 51.4621 24.8466 51.9015 25.2557 52.2045C25.6723 52.5076 26.1989 52.6591 26.8352 52.6591ZM44.5057 32.7273V56H38.9489V32.7273H44.5057ZM57.8949 38.5455V42.6364H46.8835V38.5455H57.8949ZM49.1903 34.3636H54.7472V50.5114C54.7472 50.8523 54.8002 51.1288 54.9062 51.3409C55.0199 51.5455 55.1828 51.6932 55.3949 51.7841C55.607 51.8674 55.8608 51.9091 56.1562 51.9091C56.3684 51.9091 56.5919 51.8902 56.8267 51.8523C57.0691 51.8068 57.2509 51.7689 57.3722 51.7386L58.2131 55.75C57.9479 55.8258 57.5729 55.9205 57.0881 56.0341C56.6108 56.1477 56.0388 56.2197 55.3722 56.25C54.0691 56.3106 52.9517 56.1591 52.0199 55.7955C51.0956 55.4242 50.3873 54.8485 49.8949 54.0682C49.41 53.2879 49.1752 52.3068 49.1903 51.125V34.3636ZM68.6903 56.3295C66.857 56.3295 65.2813 55.9545 63.9631 55.2045C62.6525 54.447 61.6411 53.3939 60.929 52.0455C60.2244 50.6894 59.8722 49.1174 59.8722 47.3295C59.8722 45.5341 60.2244 43.9621 60.929 42.6136C61.6411 41.2576 62.6525 40.2045 63.9631 39.4545C65.2813 38.697 66.857 38.3182 68.6903 38.3182C70.5237 38.3182 72.0956 38.697 73.4062 39.4545C74.7244 40.2045 75.7358 41.2576 76.4403 42.6136C77.1525 43.9621 77.5085 45.5341 77.5085 47.3295C77.5085 49.1174 77.1525 50.6894 76.4403 52.0455C75.7358 53.3939 74.7244 54.447 73.4062 55.2045C72.0956 55.9545 70.5237 56.3295 68.6903 56.3295ZM68.7244 52.1364C69.3911 52.1364 69.9555 51.9318 70.4176 51.5227C70.8797 51.1136 71.232 50.5455 71.4744 49.8182C71.7244 49.0909 71.8494 48.25 71.8494 47.2955C71.8494 46.3258 71.7244 45.4773 71.4744 44.75C71.232 44.0227 70.8797 43.4545 70.4176 43.0455C69.9555 42.6364 69.3911 42.4318 68.7244 42.4318C68.035 42.4318 67.4517 42.6364 66.9744 43.0455C66.5047 43.4545 66.1449 44.0227 65.8949 44.75C65.6525 45.4773 65.5312 46.3258 65.5312 47.2955C65.5312 48.25 65.6525 49.0909 65.8949 49.8182C66.1449 50.5455 66.5047 51.1136 66.9744 51.5227C67.4517 51.9318 68.035 52.1364 68.7244 52.1364ZM70.9517 36.4545L68.6903 33.8182L66.4403 36.4545H61.7812V36.3068L66.7017 31.2159H70.6903L75.5994 36.3068V36.4545H70.9517ZM80.3551 56V38.5455H85.6392V41.75H85.8324C86.196 40.6894 86.8097 39.8523 87.6733 39.2386C88.5369 38.625 89.5672 38.3182 90.7642 38.3182C91.9763 38.3182 93.0142 38.6288 93.8778 39.25C94.7415 39.8712 95.2907 40.7045 95.5256 41.75H95.7074C96.0331 40.7121 96.6695 39.8826 97.6165 39.2614C98.5634 38.6326 99.6809 38.3182 100.969 38.3182C102.62 38.3182 103.961 38.8485 104.991 39.9091C106.022 40.9621 106.537 42.4091 106.537 44.25V56H100.98V45.5227C100.98 44.6515 100.757 43.9886 100.31 43.5341C99.8627 43.072 99.2831 42.8409 98.571 42.8409C97.8059 42.8409 97.2036 43.0909 96.7642 43.5909C96.3324 44.0833 96.1165 44.7462 96.1165 45.5795V56H90.7756V45.4659C90.7756 44.6553 90.5559 44.0152 90.1165 43.5455C89.6771 43.0758 89.0975 42.8409 88.3778 42.8409C87.893 42.8409 87.465 42.9583 87.0938 43.1932C86.7225 43.4205 86.4309 43.7462 86.2188 44.1705C86.0142 44.5947 85.9119 45.0947 85.9119 45.6705V56H80.3551ZM118.139 56.3295C116.313 56.3295 114.738 55.9697 113.412 55.25C112.094 54.5227 111.079 53.4886 110.366 52.1477C109.662 50.7992 109.31 49.197 109.31 47.3409C109.31 45.5379 109.666 43.9621 110.378 42.6136C111.09 41.2576 112.094 40.2045 113.389 39.4545C114.685 38.697 116.211 38.3182 117.969 38.3182C119.211 38.3182 120.348 38.5114 121.378 38.8977C122.408 39.2841 123.298 39.8561 124.048 40.6136C124.798 41.3712 125.382 42.3068 125.798 43.4205C126.215 44.5265 126.423 45.7955 126.423 47.2273V48.6136H111.253V45.3864H121.253C121.245 44.7955 121.105 44.2689 120.832 43.8068C120.56 43.3447 120.185 42.9848 119.707 42.7273C119.238 42.4621 118.696 42.3295 118.082 42.3295C117.461 42.3295 116.904 42.4697 116.412 42.75C115.92 43.0227 115.529 43.3977 115.241 43.875C114.954 44.3447 114.802 44.8788 114.787 45.4773V48.7614C114.787 49.4735 114.927 50.0985 115.207 50.6364C115.488 51.1667 115.885 51.5795 116.401 51.875C116.916 52.1705 117.529 52.3182 118.241 52.3182C118.734 52.3182 119.181 52.25 119.582 52.1136C119.984 51.9773 120.329 51.7765 120.616 51.5114C120.904 51.2462 121.12 50.9205 121.264 50.5341L126.366 50.6818C126.154 51.8258 125.688 52.822 124.969 53.6705C124.257 54.5114 123.321 55.1667 122.162 55.6364C121.003 56.0985 119.662 56.3295 118.139 56.3295ZM139.114 38.5455V42.6364H128.102V38.5455H139.114ZM130.409 34.3636H135.966V50.5114C135.966 50.8523 136.019 51.1288 136.125 51.3409C136.239 51.5455 136.402 51.6932 136.614 51.7841C136.826 51.8674 137.08 51.9091 137.375 51.9091C137.587 51.9091 137.811 51.8902 138.045 51.8523C138.288 51.8068 138.47 51.7689 138.591 51.7386L139.432 55.75C139.167 55.8258 138.792 55.9205 138.307 56.0341C137.83 56.1477 137.258 56.2197 136.591 56.25C135.288 56.3106 134.17 56.1591 133.239 55.7955C132.314 55.4242 131.606 54.8485 131.114 54.0682C130.629 53.2879 130.394 52.3068 130.409 51.125V34.3636ZM141.949 56V38.5455H147.347V41.7273H147.528C147.847 40.5758 148.366 39.7197 149.085 39.1591C149.805 38.5909 150.642 38.3068 151.597 38.3068C151.854 38.3068 152.119 38.3258 152.392 38.3636C152.665 38.3939 152.919 38.4432 153.153 38.5114V43.3409C152.888 43.25 152.54 43.178 152.108 43.125C151.684 43.072 151.305 43.0455 150.972 43.0455C150.313 43.0455 149.718 43.1932 149.188 43.4886C148.665 43.7765 148.252 44.1818 147.949 44.7045C147.653 45.2197 147.506 45.8258 147.506 46.5227V56H141.949ZM162.659 56.3295C160.826 56.3295 159.25 55.9545 157.932 55.2045C156.621 54.447 155.61 53.3939 154.898 52.0455C154.193 50.6894 153.841 49.1174 153.841 47.3295C153.841 45.5341 154.193 43.9621 154.898 42.6136C155.61 41.2576 156.621 40.2045 157.932 39.4545C159.25 38.697 160.826 38.3182 162.659 38.3182C164.492 38.3182 166.064 38.697 167.375 39.4545C168.693 40.2045 169.705 41.2576 170.409 42.6136C171.121 43.9621 171.477 45.5341 171.477 47.3295C171.477 49.1174 171.121 50.6894 170.409 52.0455C169.705 53.3939 168.693 54.447 167.375 55.2045C166.064 55.9545 164.492 56.3295 162.659 56.3295ZM162.693 52.1364C163.36 52.1364 163.924 51.9318 164.386 51.5227C164.848 51.1136 165.201 50.5455 165.443 49.8182C165.693 49.0909 165.818 48.25 165.818 47.2955C165.818 46.3258 165.693 45.4773 165.443 44.75C165.201 44.0227 164.848 43.4545 164.386 43.0455C163.924 42.6364 163.36 42.4318 162.693 42.4318C162.004 42.4318 161.42 42.6364 160.943 43.0455C160.473 43.4545 160.114 44.0227 159.864 44.75C159.621 45.4773 159.5 46.3258 159.5 47.2955C159.5 48.25 159.621 49.0909 159.864 49.8182C160.114 50.5455 160.473 51.1136 160.943 51.5227C161.42 51.9318 162.004 52.1364 162.693 52.1364Z" fill="white"/>
<rect x="0.5" y="0.5" width="15" height="15" rx="3.5" fill="#18181B" stroke="#27272A"/>
<rect x="20.5" y="0.5" width="15" height="15" rx="3.5" fill="#991B1B" stroke="#B91C1C"/>
<rect x="40.5" y="0.5" width="15" height="15" rx="3.5" fill="#B91C1C" stroke="#DC2626"/>
<rect x="60.5" y="0.5" width="15" height="15" rx="3.5" fill="#DC2626" stroke="#EF4444"/>
<rect x="80.5" y="0.5" width="15" height="15" rx="3.5" fill="#EF4444" stroke="#F87171"/>
<rect x="100.5" y="0.5" width="15" height="15" rx="3.5" fill="#F87171" stroke="#FCA5A5"/>
</svg>
